%TF.GenerationSoftware,KiCad,Pcbnew,10.0.0*%
%TF.CreationDate,2026-05-09T17:57:46+05:30*%
%TF.ProjectId,pcb-mcu-stm32c0,7063622d-6d63-4752-9d73-746d33326330,1.0*%
%TF.SameCoordinates,Original*%
%TF.FileFunction,Profile,NP*%
%FSLAX46Y46*%
G04 Gerber Fmt 4.6, Leading zero omitted, Abs format (unit mm)*
G04 Created by KiCad (PCBNEW 10.0.0) date 2026-05-09 17:57:46*
%MOMM*%
%LPD*%
G01*
G04 APERTURE LIST*
%TA.AperFunction,Profile*%
%ADD10C,0.050000*%
%TD*%
G04 APERTURE END LIST*
%TO.C,11*%
D10*
X139125000Y-86050000D02*
X139125000Y-123350000D01*
X139325000Y-123550000D02*
X139675000Y-123550000D01*
X140175000Y-124050000D02*
X140175000Y-127350000D01*
X143400000Y-124650000D02*
X143400000Y-127550000D01*
X143400000Y-127550000D02*
X140375000Y-127550000D01*
X144600000Y-124650000D02*
X144600000Y-127550000D01*
X144600000Y-127550000D02*
X155125000Y-127550000D01*
X155125000Y-124650000D02*
X155125000Y-127550000D01*
X156325000Y-124650000D02*
X156325000Y-127550000D01*
X156325000Y-127550000D02*
X159875000Y-127550000D01*
X160075000Y-127350000D02*
X160075000Y-124050000D01*
X160575000Y-123550000D02*
X160925000Y-123550000D01*
X160625000Y-85550000D02*
X139625000Y-85550000D01*
X161125000Y-123350000D02*
X161125000Y-86050000D01*
X139125000Y-86050000D02*
G75*
G02*
X139625000Y-85550000I500001J-1D01*
G01*
X139325000Y-123550000D02*
G75*
G02*
X139125000Y-123350000I1J200001D01*
G01*
X139675000Y-123550000D02*
G75*
G02*
X140175000Y-124050000I-1J-500001D01*
G01*
X140375000Y-127550000D02*
G75*
G02*
X140175000Y-127350000I1J200001D01*
G01*
X143400000Y-124650000D02*
G75*
G02*
X144000000Y-124050000I600000J0D01*
G01*
X144000000Y-124050000D02*
G75*
G02*
X144600000Y-124650000I0J-600000D01*
G01*
X155125000Y-124650000D02*
G75*
G02*
X155725000Y-124050000I600000J0D01*
G01*
X155725000Y-124050000D02*
G75*
G02*
X156325000Y-124650000I0J-600000D01*
G01*
X160075000Y-124050000D02*
G75*
G02*
X160575000Y-123550000I500000J0D01*
G01*
X160075000Y-127350000D02*
G75*
G02*
X159875000Y-127550000I-200000J0D01*
G01*
X160625000Y-85550000D02*
G75*
G02*
X161125000Y-86050000I0J-500000D01*
G01*
X161125000Y-123350000D02*
G75*
G02*
X160925000Y-123550000I-200000J0D01*
G01*
%TD*%
M02*
