%TF.GenerationSoftware,KiCad,Pcbnew,10.0.0*%
%TF.CreationDate,2026-05-09T17:57:46+05:30*%
%TF.ProjectId,pcb-mcu-stm32c0,7063622d-6d63-4752-9d73-746d33326330,1.0*%
%TF.SameCoordinates,Original*%
%TF.FileFunction,Paste,Top*%
%TF.FilePolarity,Positive*%
%FSLAX46Y46*%
G04 Gerber Fmt 4.6, Leading zero omitted, Abs format (unit mm)*
G04 Created by KiCad (PCBNEW 10.0.0) date 2026-05-09 17:57:46*
%MOMM*%
%LPD*%
G01*
G04 APERTURE LIST*
G04 Aperture macros list*
%AMRoundRect*
0 Rectangle with rounded corners*
0 $1 Rounding radius*
0 $2 $3 $4 $5 $6 $7 $8 $9 X,Y pos of 4 corners*
0 Add a 4 corners polygon primitive as box body*
4,1,4,$2,$3,$4,$5,$6,$7,$8,$9,$2,$3,0*
0 Add four circle primitives for the rounded corners*
1,1,$1+$1,$2,$3*
1,1,$1+$1,$4,$5*
1,1,$1+$1,$6,$7*
1,1,$1+$1,$8,$9*
0 Add four rect primitives between the rounded corners*
20,1,$1+$1,$2,$3,$4,$5,0*
20,1,$1+$1,$4,$5,$6,$7,0*
20,1,$1+$1,$6,$7,$8,$9,0*
20,1,$1+$1,$8,$9,$2,$3,0*%
G04 Aperture macros list end*
%ADD10RoundRect,0.225000X-0.335876X-0.017678X-0.017678X-0.335876X0.335876X0.017678X0.017678X0.335876X0*%
%ADD11RoundRect,0.125000X-0.353553X-0.530330X0.530330X0.353553X0.353553X0.530330X-0.530330X-0.353553X0*%
%ADD12RoundRect,0.125000X0.353553X-0.530330X0.530330X-0.353553X-0.353553X0.530330X-0.530330X0.353553X0*%
%ADD13R,0.350000X2.500000*%
G04 APERTURE END LIST*
D10*
%TO.C,C2*%
X144003984Y-110103984D03*
X145100000Y-111200000D03*
%TD*%
%TO.C,C1*%
X145203984Y-108903984D03*
X146300000Y-110000000D03*
%TD*%
D11*
%TO.C,U1*%
X145192930Y-106272272D03*
X145758616Y-106837957D03*
X146324301Y-107403643D03*
X146889986Y-107969328D03*
X147455672Y-108535014D03*
X148021357Y-109100699D03*
X148587043Y-109666384D03*
X149152728Y-110232070D03*
D12*
X151097272Y-110232070D03*
X151662957Y-109666384D03*
X152228643Y-109100699D03*
X152794328Y-108535014D03*
X153360014Y-107969328D03*
X153925699Y-107403643D03*
X154491384Y-106837957D03*
X155057070Y-106272272D03*
D11*
X155057070Y-104327728D03*
X154491384Y-103762043D03*
X153925699Y-103196357D03*
X153360014Y-102630672D03*
X152794328Y-102064986D03*
X152228643Y-101499301D03*
X151662957Y-100933616D03*
X151097272Y-100367930D03*
D12*
X149152728Y-100367930D03*
X148587043Y-100933616D03*
X148021357Y-101499301D03*
X147455672Y-102064986D03*
X146889986Y-102630672D03*
X146324301Y-103196357D03*
X145758616Y-103762043D03*
X145192930Y-104327728D03*
%TD*%
D13*
%TO.C,11*%
X159375000Y-126300000D03*
X158875000Y-126300000D03*
X158375000Y-126300000D03*
X157875000Y-126300000D03*
X157375000Y-126300000D03*
X156875000Y-126300000D03*
X154375000Y-126300000D03*
X153875000Y-126300000D03*
X153375000Y-126300000D03*
X152875000Y-126300000D03*
X152375000Y-126300000D03*
X151875000Y-126300000D03*
X151375000Y-126300000D03*
X150875000Y-126300000D03*
X150375000Y-126300000D03*
X149875000Y-126300000D03*
X149375000Y-126300000D03*
X148875000Y-126300000D03*
X148375000Y-126300000D03*
X147875000Y-126300000D03*
X147375000Y-126300000D03*
X146875000Y-126300000D03*
X146375000Y-126300000D03*
X145875000Y-126300000D03*
X145375000Y-126300000D03*
X142875000Y-126300000D03*
X142375000Y-126300000D03*
X141875000Y-126300000D03*
X141375000Y-126300000D03*
X140875000Y-126300000D03*
%TD*%
M02*
