%TF.GenerationSoftware,KiCad,Pcbnew,10.0.0*%
%TF.CreationDate,2026-05-09T17:57:46+05:30*%
%TF.ProjectId,pcb-mcu-stm32c0,7063622d-6d63-4752-9d73-746d33326330,1.0*%
%TF.SameCoordinates,Original*%
%TF.FileFunction,Copper,L2,Bot*%
%TF.FilePolarity,Positive*%
%FSLAX46Y46*%
G04 Gerber Fmt 4.6, Leading zero omitted, Abs format (unit mm)*
G04 Created by KiCad (PCBNEW 10.0.0) date 2026-05-09 17:57:46*
%MOMM*%
%LPD*%
G01*
G04 APERTURE LIST*
%TA.AperFunction,EtchedComponent*%
%ADD10C,1.250000*%
%TD*%
%TA.AperFunction,EtchedComponent*%
%ADD11C,0.000000*%
%TD*%
%TA.AperFunction,ComponentPad*%
%ADD12C,5.500000*%
%TD*%
%TA.AperFunction,SMDPad,CuDef*%
%ADD13R,0.350000X2.500000*%
%TD*%
%TA.AperFunction,SMDPad,CuDef*%
%ADD14C,1.000000*%
%TD*%
%TA.AperFunction,ViaPad*%
%ADD15C,0.600000*%
%TD*%
%TA.AperFunction,Conductor*%
%ADD16C,0.300000*%
%TD*%
%TA.AperFunction,Conductor*%
%ADD17C,0.200000*%
%TD*%
G04 APERTURE END LIST*
%TO.C,11*%
D10*
X153125000Y-86600000D02*
G75*
G02*
X147125000Y-86600000I-3000000J0D01*
G01*
X147125000Y-86600000D02*
G75*
G02*
X153125000Y-86600000I3000000J0D01*
G01*
D11*
%TA.AperFunction,EtchedComponent*%
G36*
X152675000Y-89100000D02*
G01*
X147575000Y-89100000D01*
X147575000Y-84000000D01*
X152675000Y-84000000D01*
X152675000Y-89100000D01*
G37*
%TD.AperFunction*%
%TD*%
D12*
%TO.P,11,MOUNTING-HOLE,MP1_MOUNTING-HOLE*%
%TO.N,unconnected-(11-MP1-PadMOUNTING-HOLE)*%
X150125000Y-85550000D03*
D13*
%TO.P,11,P$2,2_P$2*%
%TO.N,unconnected-(11-2-PadP$2)*%
X159125000Y-126300000D03*
%TO.P,11,P$4,4_P$4*%
%TO.N,unconnected-(11-4-PadP$4)*%
X158625000Y-126300000D03*
%TO.P,11,P$6,6_P$6*%
%TO.N,unconnected-(11-6-PadP$6)*%
X158125000Y-126300000D03*
%TO.P,11,P$8,8_P$8*%
%TO.N,unconnected-(11-8-PadP$8)*%
X157625000Y-126300000D03*
%TO.P,11,P$10,10_P$10*%
%TO.N,unconnected-(11-10-PadP$10)*%
X157125000Y-126300000D03*
%TO.P,11,P$20,20_P$20*%
%TO.N,unconnected-(11-20-PadP$20)*%
X154625000Y-126300000D03*
%TO.P,11,P$22,22_P$22*%
%TO.N,unconnected-(11-22-PadP$22)*%
X154125000Y-126300000D03*
%TO.P,11,P$24,24_P$24*%
%TO.N,unconnected-(11-24-PadP$24)*%
X153625000Y-126300000D03*
%TO.P,11,P$26,26_P$26*%
%TO.N,unconnected-(11-26-PadP$26)*%
X153125000Y-126300000D03*
%TO.P,11,P$28,28_P$28*%
%TO.N,unconnected-(11-28-PadP$28)*%
X152625000Y-126300000D03*
%TO.P,11,P$30,30_P$30*%
%TO.N,unconnected-(11-30-PadP$30)*%
X152125000Y-126300000D03*
%TO.P,11,P$32,32_P$32*%
%TO.N,unconnected-(11-32-PadP$32)*%
X151625000Y-126300000D03*
%TO.P,11,P$34,34_P$34*%
%TO.N,unconnected-(11-34-PadP$34)*%
X151125000Y-126300000D03*
%TO.P,11,P$36,36_P$36*%
%TO.N,unconnected-(11-36-PadP$36)*%
X150625000Y-126300000D03*
%TO.P,11,P$38,38_P$38*%
%TO.N,unconnected-(11-38-PadP$38)*%
X150125000Y-126300000D03*
%TO.P,11,P$40,40_P$40*%
%TO.N,unconnected-(11-40-PadP$40)*%
X149625000Y-126300000D03*
%TO.P,11,P$42,42_P$42*%
%TO.N,unconnected-(11-42-PadP$42)*%
X149125000Y-126300000D03*
%TO.P,11,P$44,44_P$44*%
%TO.N,unconnected-(11-44-PadP$44)*%
X148625000Y-126300000D03*
%TO.P,11,P$46,46_P$46*%
%TO.N,unconnected-(11-46-PadP$46)*%
X148125000Y-126300000D03*
%TO.P,11,P$48,48_P$48*%
%TO.N,unconnected-(11-48-PadP$48)*%
X147625000Y-126300000D03*
%TO.P,11,P$50,50_P$50*%
%TO.N,unconnected-(11-50-PadP$50)*%
X147125000Y-126300000D03*
%TO.P,11,P$52,52_P$52*%
%TO.N,unconnected-(11-52-PadP$52)*%
X146625000Y-126300000D03*
%TO.P,11,P$54,54_P$54*%
%TO.N,unconnected-(11-54-PadP$54)*%
X146125000Y-126300000D03*
%TO.P,11,P$56,56_P$56*%
%TO.N,unconnected-(11-56-PadP$56)*%
X145625000Y-126300000D03*
%TO.P,11,P$58,58_P$58*%
%TO.N,unconnected-(11-58-PadP$58)*%
X145125000Y-126300000D03*
%TO.P,11,P$68,68_P$68*%
%TO.N,unconnected-(11-68-PadP$68)*%
X142625000Y-126300000D03*
%TO.P,11,P$70,70_P$70*%
%TO.N,unconnected-(11-70-PadP$70)*%
X142125000Y-126300000D03*
%TO.P,11,P$72,72_P$72*%
%TO.N,unconnected-(11-72-PadP$72)*%
X141625000Y-126300000D03*
%TO.P,11,P$74,74_P$74*%
%TO.N,unconnected-(11-74-PadP$74)*%
X141125000Y-126300000D03*
%TD*%
D14*
%TO.P,TP1,1,1_1*%
%TO.N,+3V3*%
X159500000Y-87400000D03*
%TD*%
%TO.P,TP5,1,1_1*%
%TO.N,GND*%
X159500000Y-97000000D03*
%TD*%
%TO.P,TP2,1,1_1*%
%TO.N,SWDIO*%
X159500000Y-89800000D03*
%TD*%
%TO.P,TP4,1,1_1*%
%TO.N,NRST*%
X159500000Y-94600000D03*
%TD*%
%TO.P,TP3,1,1_1*%
%TO.N,SWCLK*%
X159500000Y-92200000D03*
%TD*%
D15*
%TO.N,+3V3*%
X140900000Y-124200000D03*
X146889986Y-107969328D03*
%TO.N,GND*%
X146100000Y-112200000D03*
X159400000Y-123800000D03*
%TO.N,SWDIO*%
X151097272Y-100367930D03*
%TO.N,SWCLK*%
X149152728Y-100367930D03*
%TD*%
%TO.N,+3V3*%
D16*
X140900000Y-124200000D02*
X146889986Y-118210014D01*
X146889986Y-118210014D02*
X146889986Y-107969328D01*
X158397918Y-87400000D02*
X146889986Y-98907932D01*
X159500000Y-87400000D02*
X158397918Y-87400000D01*
X146889986Y-98907932D02*
X146889986Y-107969328D01*
%TO.N,SWDIO*%
D17*
X160300000Y-90600000D02*
X159500000Y-89800000D01*
X158831371Y-94000000D02*
X160300000Y-92531371D01*
X151097272Y-95902728D02*
X153000000Y-94000000D01*
X160300000Y-92531371D02*
X160300000Y-90600000D01*
X153000000Y-94000000D02*
X158831371Y-94000000D01*
X151097272Y-100367930D02*
X151097272Y-95902728D01*
%TO.N,SWCLK*%
X150697272Y-95737042D02*
X154234314Y-92200000D01*
X154234314Y-92200000D02*
X159500000Y-92200000D01*
X149152728Y-100367930D02*
X150697272Y-98823386D01*
X150697272Y-98823386D02*
X150697272Y-95737042D01*
%TD*%
%TA.AperFunction,Conductor*%
%TO.N,GND*%
G36*
X158445273Y-94620185D02*
G01*
X158491028Y-94672989D01*
X158499851Y-94700308D01*
X158537947Y-94891829D01*
X158537950Y-94891839D01*
X158613364Y-95073907D01*
X158613371Y-95073920D01*
X158722860Y-95237781D01*
X158722863Y-95237785D01*
X158862214Y-95377136D01*
X158862218Y-95377139D01*
X159026079Y-95486628D01*
X159026092Y-95486635D01*
X159208160Y-95562049D01*
X159208165Y-95562051D01*
X159208169Y-95562051D01*
X159208170Y-95562052D01*
X159401456Y-95600500D01*
X159401459Y-95600500D01*
X159598543Y-95600500D01*
X159728582Y-95574632D01*
X159791835Y-95562051D01*
X159973914Y-95486632D01*
X160137782Y-95377139D01*
X160277139Y-95237782D01*
X160386632Y-95073914D01*
X160386634Y-95073907D01*
X160389502Y-95068544D01*
X160390980Y-95069334D01*
X160429775Y-95021187D01*
X160496068Y-94999119D01*
X160563769Y-95016395D01*
X160611381Y-95067530D01*
X160624500Y-95123040D01*
X160624500Y-96478265D01*
X160604815Y-96545304D01*
X160552011Y-96591059D01*
X160482853Y-96601003D01*
X160419297Y-96571978D01*
X160389921Y-96531241D01*
X160389064Y-96531700D01*
X160386193Y-96526330D01*
X160362572Y-96490979D01*
X159853553Y-96999999D01*
X159853553Y-97000001D01*
X160362572Y-97509020D01*
X160362573Y-97509019D01*
X160386187Y-97473680D01*
X160389059Y-97468309D01*
X160390244Y-97468942D01*
X160429773Y-97419883D01*
X160496065Y-97397813D01*
X160563766Y-97415088D01*
X160611380Y-97466221D01*
X160624500Y-97521734D01*
X160624500Y-122925500D01*
X160604815Y-122992539D01*
X160552011Y-123038294D01*
X160500500Y-123049500D01*
X160487465Y-123049500D01*
X160315064Y-123079899D01*
X160150560Y-123139774D01*
X160150550Y-123139778D01*
X159998942Y-123227309D01*
X159864836Y-123339836D01*
X159752309Y-123473942D01*
X159664778Y-123625550D01*
X159664775Y-123625557D01*
X159630979Y-123718411D01*
X159589552Y-123774675D01*
X159524283Y-123799610D01*
X159514457Y-123800000D01*
X156469216Y-123800000D01*
X156402177Y-123780315D01*
X156389511Y-123770990D01*
X156358633Y-123745081D01*
X156358630Y-123745078D01*
X156191872Y-123648800D01*
X156191871Y-123648799D01*
X156010918Y-123582937D01*
X155821283Y-123549500D01*
X155821281Y-123549500D01*
X155790892Y-123549500D01*
X155725000Y-123549500D01*
X155628719Y-123549500D01*
X155628716Y-123549500D01*
X155439081Y-123582937D01*
X155258128Y-123648799D01*
X155258127Y-123648800D01*
X155091369Y-123745078D01*
X155091366Y-123745081D01*
X155060489Y-123770990D01*
X154996481Y-123799002D01*
X154980784Y-123800000D01*
X144744216Y-123800000D01*
X144677177Y-123780315D01*
X144664511Y-123770990D01*
X144633633Y-123745081D01*
X144633630Y-123745078D01*
X144466872Y-123648800D01*
X144466871Y-123648799D01*
X144285918Y-123582937D01*
X144096283Y-123549500D01*
X144096281Y-123549500D01*
X144065892Y-123549500D01*
X144000000Y-123549500D01*
X143903719Y-123549500D01*
X143903716Y-123549500D01*
X143714081Y-123582937D01*
X143533128Y-123648799D01*
X143533127Y-123648800D01*
X143366369Y-123745078D01*
X143366366Y-123745081D01*
X143335489Y-123770990D01*
X143271481Y-123799002D01*
X143255784Y-123800000D01*
X142519307Y-123800000D01*
X142452268Y-123780315D01*
X142406513Y-123727511D01*
X142396569Y-123658353D01*
X142425594Y-123594797D01*
X142431626Y-123588319D01*
X147395257Y-118624689D01*
X147395257Y-118624688D01*
X147395262Y-118624684D01*
X147466451Y-118518141D01*
X147515487Y-118399758D01*
X147540486Y-118274083D01*
X147540486Y-108474263D01*
X147560171Y-108407224D01*
X147561352Y-108405418D01*
X147599380Y-108348507D01*
X147659723Y-108202825D01*
X147690486Y-108048170D01*
X147690486Y-107890486D01*
X147690486Y-107890483D01*
X147690485Y-107890481D01*
X147659724Y-107735838D01*
X147659723Y-107735831D01*
X147599380Y-107590149D01*
X147561382Y-107533281D01*
X147540506Y-107466604D01*
X147540486Y-107464392D01*
X147540486Y-99228740D01*
X147560171Y-99161701D01*
X147576805Y-99141059D01*
X149885091Y-96832773D01*
X149946414Y-96799288D01*
X150016106Y-96804272D01*
X150072039Y-96846144D01*
X150096456Y-96911608D01*
X150096772Y-96920454D01*
X150096772Y-98523289D01*
X150077087Y-98590328D01*
X150060453Y-98610970D01*
X149138067Y-99533355D01*
X149076744Y-99566840D01*
X149074578Y-99567291D01*
X148919236Y-99598191D01*
X148919226Y-99598194D01*
X148773555Y-99658532D01*
X148773542Y-99658539D01*
X148642439Y-99746140D01*
X148642435Y-99746143D01*
X148530941Y-99857637D01*
X148530938Y-99857641D01*
X148443337Y-99988744D01*
X148443330Y-99988757D01*
X148382992Y-100134428D01*
X148382989Y-100134440D01*
X148352228Y-100289083D01*
X148352228Y-100446776D01*
X148382989Y-100601419D01*
X148382992Y-100601431D01*
X148443330Y-100747102D01*
X148443337Y-100747115D01*
X148530938Y-100878218D01*
X148530941Y-100878222D01*
X148642435Y-100989716D01*
X148642439Y-100989719D01*
X148773542Y-101077320D01*
X148773555Y-101077327D01*
X148919226Y-101137665D01*
X148919231Y-101137667D01*
X149073881Y-101168429D01*
X149073884Y-101168430D01*
X149073886Y-101168430D01*
X149231572Y-101168430D01*
X149231573Y-101168429D01*
X149386225Y-101137667D01*
X149531907Y-101077324D01*
X149663017Y-100989719D01*
X149774517Y-100878219D01*
X149862122Y-100747109D01*
X149922465Y-100601427D01*
X149941841Y-100504015D01*
X149953366Y-100446080D01*
X149985751Y-100384169D01*
X149987250Y-100382642D01*
X150085092Y-100284800D01*
X150146414Y-100251316D01*
X150216106Y-100256300D01*
X150272039Y-100298172D01*
X150296456Y-100363636D01*
X150296772Y-100372482D01*
X150296772Y-100446776D01*
X150327533Y-100601419D01*
X150327536Y-100601431D01*
X150387874Y-100747102D01*
X150387881Y-100747115D01*
X150475482Y-100878218D01*
X150475485Y-100878222D01*
X150586979Y-100989716D01*
X150586983Y-100989719D01*
X150718086Y-101077320D01*
X150718099Y-101077327D01*
X150863770Y-101137665D01*
X150863775Y-101137667D01*
X151018425Y-101168429D01*
X151018428Y-101168430D01*
X151018430Y-101168430D01*
X151176116Y-101168430D01*
X151176117Y-101168429D01*
X151330769Y-101137667D01*
X151476451Y-101077324D01*
X151607561Y-100989719D01*
X151719061Y-100878219D01*
X151806666Y-100747109D01*
X151867009Y-100601427D01*
X151897772Y-100446772D01*
X151897772Y-100289088D01*
X151897772Y-100289085D01*
X151897771Y-100289083D01*
X151867010Y-100134440D01*
X151867009Y-100134433D01*
X151867007Y-100134428D01*
X151806669Y-99988757D01*
X151806662Y-99988744D01*
X151718670Y-99857055D01*
X151697792Y-99790377D01*
X151697772Y-99788164D01*
X151697772Y-97862572D01*
X158990979Y-97862572D01*
X159026328Y-97886192D01*
X159208306Y-97961569D01*
X159208318Y-97961572D01*
X159401504Y-97999999D01*
X159401508Y-98000000D01*
X159598492Y-98000000D01*
X159598495Y-97999999D01*
X159791681Y-97961572D01*
X159791693Y-97961569D01*
X159973676Y-97886190D01*
X159973680Y-97886187D01*
X160009019Y-97862573D01*
X160009020Y-97862572D01*
X159500001Y-97353553D01*
X159500000Y-97353553D01*
X158990979Y-97862572D01*
X151697772Y-97862572D01*
X151697772Y-96901504D01*
X158500000Y-96901504D01*
X158500000Y-97098495D01*
X158538427Y-97291681D01*
X158538430Y-97291693D01*
X158613808Y-97473673D01*
X158613809Y-97473675D01*
X158637425Y-97509019D01*
X159146446Y-97000000D01*
X159146446Y-96999999D01*
X158637426Y-96490978D01*
X158637426Y-96490979D01*
X158613813Y-96526318D01*
X158613809Y-96526325D01*
X158538429Y-96708310D01*
X158538427Y-96708318D01*
X158500000Y-96901504D01*
X151697772Y-96901504D01*
X151697772Y-96202825D01*
X151716975Y-96137426D01*
X158990978Y-96137426D01*
X159500000Y-96646446D01*
X159500001Y-96646446D01*
X160009020Y-96137426D01*
X159973675Y-96113809D01*
X159973673Y-96113808D01*
X159791693Y-96038430D01*
X159791681Y-96038427D01*
X159598495Y-96000000D01*
X159401504Y-96000000D01*
X159208318Y-96038427D01*
X159208310Y-96038429D01*
X159026325Y-96113809D01*
X159026318Y-96113813D01*
X158990979Y-96137426D01*
X158990978Y-96137426D01*
X151716975Y-96137426D01*
X151717457Y-96135786D01*
X151734091Y-96115144D01*
X151753279Y-96095956D01*
X153212417Y-94636819D01*
X153273740Y-94603334D01*
X153300098Y-94600500D01*
X158378234Y-94600500D01*
X158445273Y-94620185D01*
G37*
%TD.AperFunction*%
%TA.AperFunction,Conductor*%
G36*
X145963886Y-86070185D02*
G01*
X146009641Y-86122989D01*
X146020249Y-86186653D01*
X145999500Y-86397327D01*
X145999500Y-86477402D01*
X145999500Y-86802673D01*
X146006817Y-86876959D01*
X146039229Y-87206056D01*
X146039232Y-87206073D01*
X146118304Y-87603603D01*
X146118307Y-87603614D01*
X146235976Y-87991516D01*
X146389456Y-88362049D01*
X146391095Y-88366006D01*
X146449581Y-88475427D01*
X146582166Y-88723477D01*
X146582177Y-88723495D01*
X146807365Y-89060512D01*
X146807375Y-89060526D01*
X147064524Y-89373862D01*
X147351137Y-89660475D01*
X147351142Y-89660479D01*
X147351143Y-89660480D01*
X147664479Y-89917629D01*
X148001511Y-90142827D01*
X148358994Y-90333905D01*
X148733485Y-90489024D01*
X149121376Y-90606690D01*
X149121382Y-90606691D01*
X149121385Y-90606692D01*
X149121396Y-90606695D01*
X149370681Y-90656279D01*
X149518933Y-90685769D01*
X149518942Y-90685769D01*
X149518943Y-90685770D01*
X149527695Y-90686632D01*
X149922327Y-90725500D01*
X149922330Y-90725500D01*
X150327670Y-90725500D01*
X150327673Y-90725500D01*
X150731067Y-90685769D01*
X150927847Y-90646626D01*
X151128603Y-90606695D01*
X151128614Y-90606692D01*
X151128614Y-90606691D01*
X151128624Y-90606690D01*
X151516515Y-90489024D01*
X151891006Y-90333905D01*
X152248489Y-90142827D01*
X152585521Y-89917629D01*
X152898857Y-89660480D01*
X153185480Y-89373857D01*
X153442629Y-89060521D01*
X153667827Y-88723489D01*
X153858905Y-88366006D01*
X154014024Y-87991515D01*
X154131690Y-87603624D01*
X154131692Y-87603614D01*
X154131695Y-87603603D01*
X154191794Y-87301459D01*
X154210769Y-87206067D01*
X154250500Y-86802673D01*
X154250500Y-86397327D01*
X154229750Y-86186653D01*
X154242769Y-86118008D01*
X154290834Y-86067298D01*
X154353153Y-86050500D01*
X160500500Y-86050500D01*
X160567539Y-86070185D01*
X160613294Y-86122989D01*
X160624500Y-86174500D01*
X160624500Y-86876959D01*
X160604815Y-86943998D01*
X160552011Y-86989753D01*
X160482853Y-86999697D01*
X160419297Y-86970672D01*
X160390595Y-86930871D01*
X160389502Y-86931456D01*
X160386628Y-86926079D01*
X160277139Y-86762218D01*
X160277136Y-86762214D01*
X160137785Y-86622863D01*
X160137781Y-86622860D01*
X159973920Y-86513371D01*
X159973907Y-86513364D01*
X159791839Y-86437950D01*
X159791829Y-86437947D01*
X159598543Y-86399500D01*
X159598541Y-86399500D01*
X159401459Y-86399500D01*
X159401457Y-86399500D01*
X159208170Y-86437947D01*
X159208160Y-86437950D01*
X159026092Y-86513364D01*
X159026079Y-86513371D01*
X158862219Y-86622859D01*
X158817059Y-86668020D01*
X158771896Y-86713182D01*
X158710576Y-86746666D01*
X158684217Y-86749500D01*
X158333847Y-86749500D01*
X158208179Y-86774497D01*
X158208169Y-86774500D01*
X158159138Y-86794810D01*
X158089799Y-86823530D01*
X158089781Y-86823540D01*
X157983250Y-86894721D01*
X157983243Y-86894727D01*
X146384712Y-98493258D01*
X146319005Y-98591598D01*
X146319003Y-98591600D01*
X146313523Y-98599800D01*
X146313520Y-98599806D01*
X146264485Y-98718187D01*
X146264483Y-98718193D01*
X146239486Y-98843860D01*
X146239486Y-107464392D01*
X146219801Y-107531431D01*
X146218589Y-107533282D01*
X146180594Y-107590145D01*
X146180588Y-107590156D01*
X146120250Y-107735826D01*
X146120247Y-107735838D01*
X146089486Y-107890481D01*
X146089486Y-108048174D01*
X146120247Y-108202817D01*
X146120250Y-108202829D01*
X146180588Y-108348500D01*
X146180592Y-108348507D01*
X146218588Y-108405372D01*
X146239466Y-108472049D01*
X146239486Y-108474263D01*
X146239486Y-117889205D01*
X146219801Y-117956244D01*
X146203167Y-117976886D01*
X140797068Y-123382984D01*
X140745783Y-123413841D01*
X140739753Y-123415692D01*
X140666503Y-123430263D01*
X140592604Y-123460872D01*
X140586975Y-123462601D01*
X140557691Y-123462961D01*
X140528561Y-123466093D01*
X140523154Y-123463386D01*
X140517110Y-123463461D01*
X140492277Y-123447929D01*
X140466082Y-123434817D01*
X140458433Y-123426763D01*
X140457872Y-123426412D01*
X140457647Y-123425935D01*
X140455589Y-123423768D01*
X140385163Y-123339836D01*
X140251057Y-123227309D01*
X140099449Y-123139778D01*
X140099447Y-123139777D01*
X140099445Y-123139776D01*
X139934938Y-123079900D01*
X139934937Y-123079899D01*
X139934935Y-123079899D01*
X139762534Y-123049500D01*
X139749500Y-123049500D01*
X139682461Y-123029815D01*
X139636706Y-122977011D01*
X139625500Y-122925500D01*
X139625500Y-86174500D01*
X139645185Y-86107461D01*
X139697989Y-86061706D01*
X139749500Y-86050500D01*
X145896847Y-86050500D01*
X145963886Y-86070185D01*
G37*
%TD.AperFunction*%
%TD*%
M02*
